HIERARCHY
ROOT Hips
{
    OFFSET 0.000000 0.000000 0.000000
    CHANNELS 6 Xposition Yposition Zposition Zrotation Xrotation Yrotation
    JOINT Spine
    {
        OFFSET -0.000000 0.081015 0.000000
        CHANNELS 3 Zrotation Xrotation Yrotation
        JOINT Spine1
        {
            OFFSET -0.000000 0.240812 0.000000
            CHANNELS 3 Zrotation Xrotation Yrotation
            JOINT Neck
            {
                OFFSET -0.000000 0.239823 0.021802
                CHANNELS 3 Zrotation Xrotation Yrotation
                JOINT Head
                {
                    OFFSET -0.000000 0.148909 -0.021273
                    CHANNELS 3 Zrotation Xrotation Yrotation
                    End Site
                    {
                        OFFSET -0.000000 0.197598 0.000000
                    }
                }
            }
            JOINT LeftShoulder
            {
                OFFSET 0.039829 0.224972 -0.001181
                CHANNELS 3 Zrotation Xrotation Yrotation
                JOINT LeftArm
                {
                    OFFSET 0.107364 0.000000 0.000000
                    CHANNELS 3 Zrotation Xrotation Yrotation
                    JOINT LeftForeArm
                    {
                        OFFSET 0.283104 0.000000 0.000000
                        CHANNELS 3 Zrotation Xrotation Yrotation
                        JOINT LeftHand
                        {
                            OFFSET 0.324767 0.000000 0.000000
                            CHANNELS 3 Zrotation Xrotation Yrotation
                            End Site
                            {
                                OFFSET 0.148198 0.000000 0.000000
                            }
                        }
                    }
                }
            }
            JOINT RightShoulder
            {
                OFFSET -0.039119 0.224972 -0.001181
                CHANNELS 3 Zrotation Xrotation Yrotation
                JOINT RightArm
                {
                    OFFSET -0.107364 0.000000 0.000000
                    CHANNELS 3 Zrotation Xrotation Yrotation
                    JOINT RightForeArm
                    {
                        OFFSET -0.283104 0.000000 0.000000
                        CHANNELS 3 Zrotation Xrotation Yrotation
                        JOINT RightHand
                        {
                            OFFSET -0.324767 0.000000 0.000000
                            CHANNELS 3 Zrotation Xrotation Yrotation
                            End Site
                            {
                                OFFSET -0.148198 0.000000 0.000000
                            }
                        }
                    }
                }
            }
        }
    }
    JOINT LeftUpLeg
    {
        OFFSET 0.098799 0.000000 0.000000
        CHANNELS 3 Zrotation Xrotation Yrotation
        JOINT LeftLeg
        {
            OFFSET -0.000000 -0.332632 0.000000
            CHANNELS 3 Zrotation Xrotation Yrotation
            JOINT LeftFoot
            {
                OFFSET -0.000000 -0.498967 0.000000
                CHANNELS 3 Zrotation Xrotation Yrotation
                JOINT LeftToeBase
                {
                    OFFSET -0.000000 -0.064219 0.148198
                    CHANNELS 3 Zrotation Xrotation Yrotation
                    End Site
                    {
                        OFFSET -0.000000 0.000000 0.039520
                    }
                }
            }
        }
    }
    JOINT RightUpLeg
    {
        OFFSET -0.098799 0.000000 0.000000
        CHANNELS 3 Zrotation Xrotation Yrotation
        JOINT RightLeg
        {
            OFFSET -0.000000 -0.332632 0.000000
            CHANNELS 3 Zrotation Xrotation Yrotation
            JOINT RightFoot
            {
                OFFSET -0.000000 -0.498967 0.000000
                CHANNELS 3 Zrotation Xrotation Yrotation
                JOINT RightToeBase
                {
                    OFFSET -0.000000 -0.064219 0.148198
                    CHANNELS 3 Zrotation Xrotation Yrotation
                    End Site
                    {
                        OFFSET -0.000000 0.000000 0.039520
                    }
                }
            }
        }
    }
}
MOTION
Frames:    12
Frame Time:    0.010000
-0.802458    0.752420    0.311268    -1.556233    -1.440465    -20.153906    -2.630690    21.824009    -3.397297    6.203504    -0.491048    -1.280289    -10.091552    26.855038    12.605068    -14.689230    -12.559744    8.429661    -11.886907    20.550241    -1.647174    -53.488220    -20.447926    -12.564422    43.381279    -43.653549    -97.900940    55.521721    9.027469    2.212142    4.549778    20.092594    10.553519    32.131042    23.539654    19.770674    -110.468246    -40.797382    11.813857    -34.185646    -26.766327    0.816776    36.343502    -35.000504    17.323088    -28.384531    64.127655    11.521089    -5.207689    -20.492817    18.056959    0.000000    0.000000    0.000000    -26.877693    -33.804123    -21.038010    6.828909    46.005707    0.752894    -23.416227    36.933933    21.969807    0.000000    0.000000    0.000000    
-0.801166    0.748707    0.309637    -1.563766    -1.533040    -20.218897    -2.625841    22.490372    -3.299865    6.037657    -0.614245    -1.247250    -10.002853    26.591351    12.612298    -14.757662    -12.586215    8.452908    -11.838856    20.451738    -1.691942    -53.434460    -20.380592    -12.562497    43.484814    -43.734749    -97.834229    55.461166    9.054935    2.298394    4.598655    19.972157    10.678104    31.773134    23.072702    19.801590    -110.157570    -39.022713    12.273974    -34.935154    -23.186857    -2.553473    36.774738    -35.601719    17.610165    -29.336084    65.028389    12.231609    -5.379637    -20.679457    17.966154    0.000000    0.000000    0.000000    -27.318605    -34.366230    -21.251677    7.017993    46.808483    0.583546    -23.416227    36.933933    21.969807    0.000000    0.000000    0.000000    
-0.799806    0.744741    0.307973    -1.606488    -1.680522    -20.238396    -2.679249    23.330017    -3.200727    6.044859    -0.903198    -1.209530    -10.051123    26.417690    12.630305    -14.799274    -12.675276    8.462983    -11.821168    20.444296    -1.734047    -53.540485    -20.274309    -12.579518    42.990570    -44.056580    -97.987144    55.208054    7.619349    1.635942    4.465583    19.842249    10.796813    31.735197    23.106798    19.764719    -110.314438    -39.099751    12.133426    -35.977005    -23.090271    -3.584619    37.231407    -36.259270    17.818729    -30.523603    65.992836    13.221208    -5.644705    -20.813828    17.820126    0.000000    0.000000    0.000000    -27.770620    -34.871731    -21.485430    7.202582    47.638474    0.337138    -23.416227    36.933933    21.969807    0.000000    0.000000    0.000000    
-0.798261    0.740078    0.305976    -1.566603    -1.647752    -20.282928    -2.743608    23.917179    -3.082630    5.898304    -1.138960    -1.170099    -9.746842    26.360327    12.583351    -15.098436    -12.772558    8.362404    -11.621225    20.445116    -1.948203    -53.575993    -20.377293    -12.553378    42.883713    -44.021954    -98.158661    55.206284    7.735717    1.732703    4.503722    19.584040    11.015830    31.519703    23.213015    19.623720    -110.308937    -39.615612    12.045432    -36.824459    -23.947634    -3.090330    37.848759    -37.217461    18.351873    -31.722027    67.184944    14.236338    -5.996989    -20.937302    17.601711    0.000000    0.000000    0.000000    -28.426504    -35.596836    -21.934210    7.520864    48.538280    0.288821    -23.416227    36.933933    21.969807    0.000000    0.000000    0.000000    
-0.796800    0.736292    0.306439    -1.891766    -2.372010    -20.410030    -2.600662    25.154188    -2.947504    5.672009    -1.130955    -1.128311    -9.678104    26.199532    12.560305    -15.308162    -12.862171    8.296352    -11.601613    20.439198    -2.099944    -53.519035    -20.449366    -12.594049    42.786499    -43.982952    -98.246223    55.254665    7.793256    1.856669    4.380119    19.573374    11.158544    31.731928    23.279770    19.499596    -110.778526    -38.875118    11.686356    -34.944172    -23.585482    -2.700714    38.088505    -37.195644    18.109432    -33.240723    68.168022    15.554255    -6.311007    -21.194454    17.389404    0.000000    0.000000    0.000000    -28.615366    -35.340088    -21.807377    7.684933    49.237312    0.253871    -23.416227    36.933933    21.969807    0.000000    0.000000    0.000000    
-0.795274    0.730971    0.304347    -1.916461    -2.367348    -20.445698    -2.683274    25.799873    -2.814728    5.661268    -1.254247    -1.089681    -9.834688    25.925825    12.554892    -15.050001    -12.975676    8.353314    -11.634066    20.296656    -2.234269    -53.334003    -20.367235    -12.553160    42.749325    -44.015938    -98.272224    55.461418    7.833906    2.075492    4.327937    19.238901    11.337831    31.828592    23.238195    19.250574    -110.830795    -39.159046    11.888595    -37.888981    -22.767534    -5.197096    38.900314    -38.278484    18.742775    -34.868549    69.548042    16.867735    -6.809170    -21.184660    17.109516    0.000000    0.000000    0.000000    -29.084486    -36.235611    -22.061611    7.794248    50.360180    0.134969    -23.416227    36.933933    21.969807    0.000000    0.000000    0.000000    
-0.793658    0.725232    0.302244    -1.939286    -2.349323    -20.442091    -2.758538    26.408989    -2.706755    5.656582    -1.323684    -1.061452    -9.505685    25.764030    12.427333    -15.666150    -13.090355    8.094965    -11.589665    19.872091    -2.488503    -53.149029    -19.997396    -12.216897    43.001057    -44.216953    -97.998596    55.487396    7.756680    2.256163    4.185989    19.095831    11.463058    31.897167    23.091045    19.264009    -110.920609    -39.022800    11.792697    -34.780670    -23.628216    -2.514439    39.810482    -39.493687    19.443731    -36.852417    71.022873    18.646664    -7.373888    -21.038740    16.576797    0.000000    0.000000    0.000000    -29.579277    -37.163120    -22.358179    7.841384    51.545326    0.186223    -23.416227    36.933933    21.969807    0.000000    0.000000    0.000000    
-0.792635    0.717409    0.296133    -1.576922    -1.260821    -20.451170    -3.380240    26.086252    -2.395315    6.242200    -1.532956    -0.984646    -9.539231    25.631235    12.321249    -15.859751    -13.379756    7.905234    -11.739221    19.908792    -2.673290    -52.990166    -19.693434    -12.429370    43.385830    -44.488735    -97.491196    55.641212    7.544210    2.454497    3.989318    18.921251    11.612391    31.779175    23.015142    19.395926    -111.204964    -39.322590    11.711053    -38.215343    -23.084612    -5.179722    41.916645    -41.965565    21.773016    -38.980331    72.894997    20.559675    -8.138912    -20.689819    15.890053    0.000000    0.000000    0.000000    -30.288534    -39.792847    -23.016462    7.819333    53.225586    -0.102553    -23.416227    36.933933    21.969807    0.000000    0.000000    0.000000    
-0.791005    0.710799    0.293590    -1.569152    -1.104907    -20.408928    -3.532179    26.452185    -2.256780    6.378354    -1.165858    -0.972637    -9.588887    25.707069    11.665112    -15.354317    -14.676204    7.168091    -11.914063    19.626318    -2.698995    -52.826099    -18.889332    -12.732609    44.137310    -45.040253    -96.576988    55.772171    7.049901    2.616427    3.981001    18.249523    11.619131    31.816969    22.352098    19.292673    -109.787254    -41.378445    13.481472    -39.207218    -24.248655    -2.992789    43.161274    -43.404797    22.755966    -41.933994    74.446098    23.333382    -8.652173    -20.487791    15.200799    0.000000    0.000000    0.000000    -30.771700    -41.004868    -23.336031    7.719137    54.574348    0.150484    -23.416227    36.933933    21.969807    0.000000    0.000000    0.000000    
-0.789683    0.704202    0.290819    -1.757354    -1.052420    -20.950800    -3.866833    27.026785    -1.619077    6.424110    -1.045896    -0.799638    -9.736816    25.344215    11.606548    -15.065392    -14.849789    7.184109    -11.896316    19.734556    -2.931715    -52.801228    -18.293087    -13.191433    45.053638    -45.584717    -95.531387    55.760262    6.742653    2.943430    3.862286    18.018208    11.790443    31.825880    22.501583    19.437122    -110.209190    -41.391590    13.203285    -42.422047    -23.531578    -5.478435    45.024731    -44.201820    24.295063    -45.533627    75.871956    26.610228    -8.947885    -20.219677    14.552890    0.000000    0.000000    0.000000    -30.352688    -42.506657    -22.644640    7.403085    55.874512    0.372847    -23.416227    36.933933    21.969807    0.000000    0.000000    0.000000    
-0.788195    0.697199    0.288440    -1.854030    -1.025512    -20.909809    -3.956588    27.511755    -1.508776    6.300283    -1.054790    -0.777090    -9.045035    25.029528    11.864383    -16.665119    -14.202826    7.203073    -11.677721    20.432066    -3.398403    -52.943832    -17.719080    -13.992765    46.616772    -46.297680    -93.801643    55.548855    6.375180    3.222277    3.811637    18.041622    12.243383    31.955942    22.712589    19.472378    -110.994926    -40.545292    12.219237    -38.950432    -24.449102    -3.400467    46.399818    -45.538609    25.290398    -49.670048    77.358910    30.373163    -9.043569    -19.913246    13.939413    0.000000    0.000000    0.000000    -30.546707    -43.647999    -22.703346    7.047967    57.252148    0.849668    -23.416227    36.933933    21.969807    0.000000    0.000000    0.000000    
-0.786564    0.690101    0.286208    -1.966400    -0.994446    -20.860081    -4.039775    27.967541    -1.412310    6.192204    -0.838285    -0.770319    -8.688925    24.897999    11.675856    -17.044306    -14.501824    6.903858    -11.554897    20.607059    -3.726600    -53.032856    -17.014898    -14.608459    47.968048    -46.863499    -92.359917    55.591175    6.149566    3.469720    3.768372    17.842989    12.508492    31.683502    24.333839    19.882849    -113.058990    -38.938171    9.770620    -41.319908    -24.359808    -6.104572    47.774044    -46.902512    26.287195    -54.751369    78.724213    35.180450    -8.670793    -19.570980    13.397343    0.000000    0.000000    0.000000    -30.685823    -44.839554    -22.723469    6.558853    58.666992    1.328845    -23.416227    36.933933    21.969807    0.000000    0.000000    0.000000    
